# xmcd CD database file
# Copyright (C) 1996 Ti Kan
#
# Track frame offsets:
# 	150
# 	23505
# 	39177
# 	54047
# 	63382
# 	79662
# 	97927
# 	118240
# 	135975
# 	148317
#
# Disc length: 2113 seconds
#
# Revision: 1
# Processed by: cddbd v1.4b41PL1 Copyright (c) Steve Scherf et al.
# Submitted via: DiscPlay 3.4.1
#
DISCID=76083f0a
DTITLE=Red Sovine - The Legendary Red Sovine
DYEAR=1900
DGENRE=
TTITLE0=Teddy Bear
TTITLE1=Phantom 309
TTITLE2=It'll Come Back
TTITLE3=Green Green Grass Of Home
TTITLE4=I Didn't Know She Was Loving Me  Goodbye
TTITLE5=Giddy,UP Go
TTITLE6=Little Joe
TTITLE7=Little Rosa
TTITLE8=I Didn't Jump The Fence
TTITLE9=There Goes My Everything
EXTD=
EXTT0=
EXTT1=
EXTT2=
EXTT3=
EXTT4=
EXTT5=
EXTT6=
EXTT7=
EXTT8=
EXTT9=
PLAYORDER=
